<?xml version="1.0" standalone="no"?>
<!DOCTYPE svg PUBLIC "-//W3C//DTD SVG 20010904//EN"
 "http://www.w3.org/TR/2001/REC-SVG-20010904/DTD/svg10.dtd">
<svg version="1.0" xmlns="http://www.w3.org/2000/svg"
 width="1024.000000pt" height="1024.000000pt" viewBox="0 0 1024.000000 1024.000000"
 preserveAspectRatio="xMidYMid meet">

<g transform="translate(0.000000,1024.000000) scale(0.100000,-0.100000)"
fill="#000000" stroke="none">
<path d="M3205 8116 c-37 -17 -80 -62 -94 -99 -7 -18 -11 -177 -11 -453 l0
-424 -170 0 -169 0 -20 68 c-11 37 -34 114 -50 172 -47 161 -19 150 -392 150
-332 0 -348 -2 -383 -52 -30 -43 -17 -114 28 -150 19 -16 50 -18 278 -18 l257
0 9 -32 c5 -18 60 -206 122 -418 61 -212 192 -662 291 -1000 98 -338 183 -625
189 -638 18 -42 72 -55 195 -48 61 3 508 7 995 8 l885 1 33 33 c37 37 43 84
16 135 -31 61 6 59 -1016 59 l-933 0 -33 113 c-17 62 -32 116 -32 120 0 4 473
7 1050 7 1133 0 1099 -2 1134 52 20 31 346 1296 346 1343 0 27 -7 44 -29 66
l-29 29 -306 0 -306 0 0 428 c0 479 2 466 -73 526 l-39 31 -856 2 c-701 2
-862 0 -887 -11z m1665 -931 l0 -765 -797 -2 c-439 -1 -744 -5 -678 -9 83 -4
60 -5 -75 -2 -173 3 -197 6 -214 22 -17 18 -18 37 -17 255 l1 235 -132 4 -133
3 138 2 137 2 0 -243 c0 -176 3 -246 12 -255 7 -7 43 -12 90 -12 l78 0 0 760
0 760 793 3 c435 1 793 3 795 5 1 1 2 -342 2 -763z m539 -517 c-38 -145 -99
-382 -137 -528 l-69 -265 -1034 -2 -1034 -3 -144 503 c-153 535 -158 551 -143
527 5 -8 74 -241 153 -517 l143 -503 1028 0 c868 0 1028 2 1028 14 0 7 31 132
69 277 38 145 94 363 125 484 31 121 59 230 62 243 l6 22 -193 0 -194 0 0
-241 c0 -286 7 -270 -119 -267 l-81 2 82 3 c59 3 85 8 94 20 11 12 13 69 11
254 l-2 239 208 0 208 0 -67 -262z m-1701 -265 c-32 -2 -84 -2 -115 0 -32 2
-6 3 57 3 63 0 89 -1 58 -3z m89 1 c-3 -3 -12 -4 -19 -1 -8 3 -5 6 6 6 11 1
17 -2 13 -5z m101 -1 c-16 -2 -40 -2 -55 0 -16 2 -3 4 27 4 30 0 43 -2 28 -4z
m205 0 c-29 -2 -78 -2 -110 0 -32 2 -8 3 52 3 61 0 87 -1 58 -3z m84 1 c-3 -3
-12 -4 -19 -1 -8 3 -5 6 6 6 11 1 17 -2 13 -5z m101 -1 c-15 -2 -42 -2 -60 0
-18 2 -6 4 27 4 33 0 48 -2 33 -4z m95 0 c-13 -2 -33 -2 -45 0 -13 2 -3 4 22
4 25 0 35 -2 23 -4z m70 0 c-7 -2 -21 -2 -30 0 -10 3 -4 5 12 5 17 0 24 -2 18
-5z m150 0 c-23 -2 -64 -2 -90 0 -26 2 -7 3 42 3 50 0 71 -1 48 -3z m74 1 c-3
-3 -12 -4 -19 -1 -8 3 -5 6 6 6 11 1 17 -2 13 -5z m106 -1 c-13 -2 -33 -2 -45
0 -13 2 -3 4 22 4 25 0 35 -2 23 -4z m75 0 c-10 -2 -26 -2 -35 0 -10 3 -2 5
17 5 19 0 27 -2 18 -5z"/>
<path d="M3864 7663 c-13 -14 -59 -68 -101 -120 l-77 -93 -56 53 c-30 30 -63
57 -73 60 -47 17 -96 -38 -78 -87 5 -12 47 -62 94 -110 119 -123 115 -124 279
69 111 132 127 154 127 187 1 66 -69 91 -115 41z m105 -27 c-3 -3 -11 5 -18
17 -13 21 -12 21 5 5 10 -10 16 -20 13 -22z m-2 -38 c-3 -8 -6 -5 -6 6 -1 11
2 17 5 13 3 -3 4 -12 1 -19z m-392 -58 c3 -6 -1 -7 -9 -4 -18 7 -21 14 -7 14
6 0 13 -4 16 -10z"/>
<path d="M4133 7570 c-46 -19 -57 -83 -20 -118 23 -21 30 -22 275 -22 246 0
252 0 272 22 29 32 27 81 -6 107 -25 20 -39 21 -263 20 -130 0 -246 -4 -258
-9z"/>
<path d="M3850 7098 c-38 -42 -52 -67 -28 -52 7 4 8 3 4 -5 -4 -6 -11 -9 -16
-6 -6 4 -90 -85 -117 -124 -2 -2 -27 19 -57 47 -61 58 -90 65 -124 29 -38 -40
-29 -63 65 -158 120 -123 120 -123 246 26 92 109 111 135 85 119 -7 -4 -8 -3
-4 5 4 6 11 9 15 6 9 -5 43 30 60 63 22 43 -10 92 -60 92 -22 0 -40 -11 -69
-42z m118 -14 c-3 -14 -5 -12 -10 9 -3 19 -2 25 4 19 6 -6 8 -18 6 -28z m-265
-331 c-7 -2 -19 -2 -25 0 -7 3 -2 5 12 5 14 0 19 -2 13 -5z"/>
<path d="M4122 6987 c-31 -33 -29 -80 4 -106 25 -20 39 -21 264 -21 225 0 239
1 264 21 33 26 36 79 6 109 -19 19 -33 20 -268 20 -247 0 -249 0 -270 -23z"/>
<path d="M3367 5066 c-206 -74 -264 -335 -109 -490 63 -64 105 -81 202 -81 69
0 93 4 127 23 130 69 191 218 147 358 -24 77 -105 162 -178 187 -59 20 -137
21 -189 3z"/>
<path d="M4739 5064 c-62 -19 -132 -83 -166 -151 -98 -201 60 -438 281 -421
103 9 182 60 231 150 27 48 30 62 30 143 0 74 -4 97 -23 133 -69 130 -213 190
-353 146z"/>
<path d="M2294 4326 c-98 -19 -137 -32 -224 -77 -181 -93 -275 -232 -294 -434
-21 -214 71 -384 262 -483 96 -50 164 -71 378 -117 295 -63 365 -94 412 -185
43 -83 14 -204 -65 -269 -72 -60 -131 -75 -283 -75 -117 0 -143 3 -191 22
-103 41 -184 131 -210 235 l-11 47 -175 0 -174 0 6 -57 c30 -250 214 -443 500
-525 70 -20 101 -23 255 -22 147 0 188 4 255 22 244 66 403 212 444 410 18 87
14 241 -9 314 -62 203 -214 296 -635 387 -258 57 -306 74 -362 133 -53 56 -67
124 -41 212 17 56 90 128 153 150 65 23 205 32 276 17 131 -27 222 -114 244
-234 l7 -37 171 0 170 0 -6 60 c-14 131 -90 278 -185 360 -63 53 -160 104
-252 130 -97 27 -313 36 -416 16z"/>
<path d="M8376 4326 c-59 -22 -88 -47 -113 -96 -28 -54 -29 -120 -4 -175 32
-71 93 -105 186 -105 93 0 154 34 186 105 32 69 19 165 -29 218 -48 53 -157
78 -226 53z"/>
<path d="M3540 3950 l0 -170 -110 0 -110 0 0 -135 0 -135 109 0 110 0 3 -397
c4 -378 5 -401 26 -464 40 -119 107 -186 233 -230 52 -18 87 -23 189 -23 76
-1 147 4 183 13 l57 14 0 140 c0 129 -1 139 -17 132 -10 -4 -58 -9 -108 -12
-80 -4 -95 -2 -135 19 -85 44 -85 42 -88 451 l-3 357 171 0 170 0 0 135 0 135
-170 0 -170 0 0 170 0 170 -170 0 -170 0 0 -170z"/>
<path d="M4925 3806 c-210 -41 -381 -170 -474 -359 -54 -111 -72 -181 -78
-318 -11 -233 53 -413 197 -555 129 -127 268 -183 470 -191 151 -6 261 16 374
74 124 65 241 204 274 326 l10 37 -162 0 -163 0 -14 -26 c-7 -15 -36 -46 -62
-70 -67 -60 -131 -78 -252 -72 -108 6 -178 33 -239 94 -46 46 -92 140 -101
207 l-7 47 512 0 513 0 -6 133 c-7 158 -24 234 -78 346 -74 152 -220 271 -389
316 -81 22 -242 27 -325 11z m290 -288 c92 -48 149 -132 162 -238 l6 -50 -338
0 -337 0 7 38 c22 123 106 224 218 264 78 28 214 21 282 -14z"/>
<path d="M7355 3810 c-187 -30 -341 -124 -404 -248 -33 -64 -47 -170 -34 -246
36 -209 188 -308 551 -361 147 -21 209 -40 244 -75 23 -24 28 -37 28 -79 0
-44 -5 -56 -36 -90 -51 -57 -110 -74 -237 -69 -75 3 -114 10 -147 24 -55 25
-106 76 -121 121 l-11 33 -159 0 -160 0 7 -37 c28 -157 111 -265 255 -332 115
-54 177 -66 354 -66 140 0 169 3 235 23 143 46 239 113 295 208 62 106 68 265
14 374 -56 111 -154 170 -344 206 -66 12 -171 32 -233 43 -173 32 -222 65
-222 149 0 84 44 131 151 158 152 39 314 -26 335 -135 l7 -31 163 0 164 0 -6
43 c-29 185 -162 317 -372 372 -78 20 -237 27 -317 15z"/>
<path d="M6640 3804 c-173 -27 -254 -73 -329 -186 l-41 -60 0 111 0 111 -165
0 -165 0 0 -685 0 -685 170 0 170 0 0 388 c0 420 3 444 56 542 56 103 141 142
312 142 l112 0 -2 162 -3 161 -45 1 c-25 1 -56 0 -70 -2z"/>
<path d="M8285 3095 l0 -685 168 0 167 0 0 685 0 685 -167 0 -168 0 0 -685z"/>
</g>
</svg>
